<?xml version="1.0" encoding="utf-8" standalone="no"?>
<!DOCTYPE svg PUBLIC "-//W3C//DTD SVG 1.1//EN"
  "http://www.w3.org/Graphics/SVG/1.1/DTD/svg11.dtd">
<svg xmlns:xlink="http://www.w3.org/1999/xlink" width="689.76pt" height="324pt" viewBox="0 0 689.76 324" xmlns="http://www.w3.org/2000/svg" version="1.1">
 <metadata>
  <rdf:RDF xmlns:dc="http://purl.org/dc/elements/1.1/" xmlns:cc="http://creativecommons.org/ns#" xmlns:rdf="http://www.w3.org/1999/02/22-rdf-syntax-ns#">
   <cc:Work>
    <dc:type rdf:resource="http://purl.org/dc/dcmitype/StillImage"/>
    <dc:date>2025-05-21T12:49:39.169312</dc:date>
    <dc:format>image/svg+xml</dc:format>
    <dc:creator>
     <cc:Agent>
      <dc:title>Matplotlib v3.9.0, https://matplotlib.org/</dc:title>
     </cc:Agent>
    </dc:creator>
   </cc:Work>
  </rdf:RDF>
 </metadata>
 <defs>
  <style type="text/css">*{stroke-linejoin: round; stroke-linecap: butt}</style>
 </defs>
 <g id="figure_1">
  <g id="patch_1">
   <path d="M 0 324 
L 689.76 324 
L 689.76 0 
L 0 0 
z
" style="fill: #ffffff"/>
  </g>
  <g id="axes_1">
   <g id="patch_2">
    <path d="M 56 282.04 
L 678.96 282.04 
L 678.96 26.88 
L 56 26.88 
z
" style="fill: #ffffff"/>
   </g>
   <g id="matplotlib.axis_1">
    <g id="xtick_1">
     <g id="line2d_1">
      <path d="M 84.240823 282.04 
L 84.240823 26.88 
" clip-path="url(#p294ceae7f0)" style="fill: none; stroke: #b0b0b0; stroke-width: 0.8; stroke-linecap: square"/>
     </g>
     <g id="line2d_2">
      <defs>
       <path id="m6bf7344ff8" d="M 0 0 
L 0 3.5 
" style="stroke: #000000; stroke-width: 0.8"/>
      </defs>
      <g>
       <use xlink:href="#m6bf7344ff8" x="84.240823" y="282.04" style="stroke: #000000; stroke-width: 0.8"/>
      </g>
     </g>
     <g id="text_1">
      <!-- 100 -->
      <g transform="translate(74.697073 296.638438) scale(0.1 -0.1)">
       <defs>
        <path id="DejaVuSans-31" d="M 794 531 
L 1825 531 
L 1825 4091 
L 703 3866 
L 703 4441 
L 1819 4666 
L 2450 4666 
L 2450 531 
L 3481 531 
L 3481 0 
L 794 0 
L 794 531 
z
" transform="scale(0.015625)"/>
        <path id="DejaVuSans-30" d="M 2034 4250 
Q 1547 4250 1301 3770 
Q 1056 3291 1056 2328 
Q 1056 1369 1301 889 
Q 1547 409 2034 409 
Q 2525 409 2770 889 
Q 3016 1369 3016 2328 
Q 3016 3291 2770 3770 
Q 2525 4250 2034 4250 
z
M 2034 4750 
Q 2819 4750 3233 4129 
Q 3647 3509 3647 2328 
Q 3647 1150 3233 529 
Q 2819 -91 2034 -91 
Q 1250 -91 836 529 
Q 422 1150 422 2328 
Q 422 3509 836 4129 
Q 1250 4750 2034 4750 
z
" transform="scale(0.015625)"/>
       </defs>
       <use xlink:href="#DejaVuSans-31"/>
       <use xlink:href="#DejaVuSans-30" x="63.623047"/>
       <use xlink:href="#DejaVuSans-30" x="127.246094"/>
      </g>
     </g>
    </g>
    <g id="xtick_2">
     <g id="line2d_3">
      <path d="M 159.781342 282.04 
L 159.781342 26.88 
" clip-path="url(#p294ceae7f0)" style="fill: none; stroke: #b0b0b0; stroke-width: 0.8; stroke-linecap: square"/>
     </g>
     <g id="line2d_4">
      <g>
       <use xlink:href="#m6bf7344ff8" x="159.781342" y="282.04" style="stroke: #000000; stroke-width: 0.8"/>
      </g>
     </g>
     <g id="text_2">
      <!-- 120 -->
      <g transform="translate(150.237592 296.638438) scale(0.1 -0.1)">
       <defs>
        <path id="DejaVuSans-32" d="M 1228 531 
L 3431 531 
L 3431 0 
L 469 0 
L 469 531 
Q 828 903 1448 1529 
Q 2069 2156 2228 2338 
Q 2531 2678 2651 2914 
Q 2772 3150 2772 3378 
Q 2772 3750 2511 3984 
Q 2250 4219 1831 4219 
Q 1534 4219 1204 4116 
Q 875 4013 500 3803 
L 500 4441 
Q 881 4594 1212 4672 
Q 1544 4750 1819 4750 
Q 2544 4750 2975 4387 
Q 3406 4025 3406 3419 
Q 3406 3131 3298 2873 
Q 3191 2616 2906 2266 
Q 2828 2175 2409 1742 
Q 1991 1309 1228 531 
z
" transform="scale(0.015625)"/>
       </defs>
       <use xlink:href="#DejaVuSans-31"/>
       <use xlink:href="#DejaVuSans-32" x="63.623047"/>
       <use xlink:href="#DejaVuSans-30" x="127.246094"/>
      </g>
     </g>
    </g>
    <g id="xtick_3">
     <g id="line2d_5">
      <path d="M 235.321862 282.04 
L 235.321862 26.88 
" clip-path="url(#p294ceae7f0)" style="fill: none; stroke: #b0b0b0; stroke-width: 0.8; stroke-linecap: square"/>
     </g>
     <g id="line2d_6">
      <g>
       <use xlink:href="#m6bf7344ff8" x="235.321862" y="282.04" style="stroke: #000000; stroke-width: 0.8"/>
      </g>
     </g>
     <g id="text_3">
      <!-- 140 -->
      <g transform="translate(225.778112 296.638438) scale(0.1 -0.1)">
       <defs>
        <path id="DejaVuSans-34" d="M 2419 4116 
L 825 1625 
L 2419 1625 
L 2419 4116 
z
M 2253 4666 
L 3047 4666 
L 3047 1625 
L 3713 1625 
L 3713 1100 
L 3047 1100 
L 3047 0 
L 2419 0 
L 2419 1100 
L 313 1100 
L 313 1709 
L 2253 4666 
z
" transform="scale(0.015625)"/>
       </defs>
       <use xlink:href="#DejaVuSans-31"/>
       <use xlink:href="#DejaVuSans-34" x="63.623047"/>
       <use xlink:href="#DejaVuSans-30" x="127.246094"/>
      </g>
     </g>
    </g>
    <g id="xtick_4">
     <g id="line2d_7">
      <path d="M 310.862381 282.04 
L 310.862381 26.88 
" clip-path="url(#p294ceae7f0)" style="fill: none; stroke: #b0b0b0; stroke-width: 0.8; stroke-linecap: square"/>
     </g>
     <g id="line2d_8">
      <g>
       <use xlink:href="#m6bf7344ff8" x="310.862381" y="282.04" style="stroke: #000000; stroke-width: 0.8"/>
      </g>
     </g>
     <g id="text_4">
      <!-- 160 -->
      <g transform="translate(301.318631 296.638438) scale(0.1 -0.1)">
       <defs>
        <path id="DejaVuSans-36" d="M 2113 2584 
Q 1688 2584 1439 2293 
Q 1191 2003 1191 1497 
Q 1191 994 1439 701 
Q 1688 409 2113 409 
Q 2538 409 2786 701 
Q 3034 994 3034 1497 
Q 3034 2003 2786 2293 
Q 2538 2584 2113 2584 
z
M 3366 4563 
L 3366 3988 
Q 3128 4100 2886 4159 
Q 2644 4219 2406 4219 
Q 1781 4219 1451 3797 
Q 1122 3375 1075 2522 
Q 1259 2794 1537 2939 
Q 1816 3084 2150 3084 
Q 2853 3084 3261 2657 
Q 3669 2231 3669 1497 
Q 3669 778 3244 343 
Q 2819 -91 2113 -91 
Q 1303 -91 875 529 
Q 447 1150 447 2328 
Q 447 3434 972 4092 
Q 1497 4750 2381 4750 
Q 2619 4750 2861 4703 
Q 3103 4656 3366 4563 
z
" transform="scale(0.015625)"/>
       </defs>
       <use xlink:href="#DejaVuSans-31"/>
       <use xlink:href="#DejaVuSans-36" x="63.623047"/>
       <use xlink:href="#DejaVuSans-30" x="127.246094"/>
      </g>
     </g>
    </g>
    <g id="xtick_5">
     <g id="line2d_9">
      <path d="M 386.4029 282.04 
L 386.4029 26.88 
" clip-path="url(#p294ceae7f0)" style="fill: none; stroke: #b0b0b0; stroke-width: 0.8; stroke-linecap: square"/>
     </g>
     <g id="line2d_10">
      <g>
       <use xlink:href="#m6bf7344ff8" x="386.4029" y="282.04" style="stroke: #000000; stroke-width: 0.8"/>
      </g>
     </g>
     <g id="text_5">
      <!-- 180 -->
      <g transform="translate(376.85915 296.638438) scale(0.1 -0.1)">
       <defs>
        <path id="DejaVuSans-38" d="M 2034 2216 
Q 1584 2216 1326 1975 
Q 1069 1734 1069 1313 
Q 1069 891 1326 650 
Q 1584 409 2034 409 
Q 2484 409 2743 651 
Q 3003 894 3003 1313 
Q 3003 1734 2745 1975 
Q 2488 2216 2034 2216 
z
M 1403 2484 
Q 997 2584 770 2862 
Q 544 3141 544 3541 
Q 544 4100 942 4425 
Q 1341 4750 2034 4750 
Q 2731 4750 3128 4425 
Q 3525 4100 3525 3541 
Q 3525 3141 3298 2862 
Q 3072 2584 2669 2484 
Q 3125 2378 3379 2068 
Q 3634 1759 3634 1313 
Q 3634 634 3220 271 
Q 2806 -91 2034 -91 
Q 1263 -91 848 271 
Q 434 634 434 1313 
Q 434 1759 690 2068 
Q 947 2378 1403 2484 
z
M 1172 3481 
Q 1172 3119 1398 2916 
Q 1625 2713 2034 2713 
Q 2441 2713 2670 2916 
Q 2900 3119 2900 3481 
Q 2900 3844 2670 4047 
Q 2441 4250 2034 4250 
Q 1625 4250 1398 4047 
Q 1172 3844 1172 3481 
z
" transform="scale(0.015625)"/>
       </defs>
       <use xlink:href="#DejaVuSans-31"/>
       <use xlink:href="#DejaVuSans-38" x="63.623047"/>
       <use xlink:href="#DejaVuSans-30" x="127.246094"/>
      </g>
     </g>
    </g>
    <g id="xtick_6">
     <g id="line2d_11">
      <path d="M 461.943419 282.04 
L 461.943419 26.88 
" clip-path="url(#p294ceae7f0)" style="fill: none; stroke: #b0b0b0; stroke-width: 0.8; stroke-linecap: square"/>
     </g>
     <g id="line2d_12">
      <g>
       <use xlink:href="#m6bf7344ff8" x="461.943419" y="282.04" style="stroke: #000000; stroke-width: 0.8"/>
      </g>
     </g>
     <g id="text_6">
      <!-- 200 -->
      <g transform="translate(452.399669 296.638438) scale(0.1 -0.1)">
       <use xlink:href="#DejaVuSans-32"/>
       <use xlink:href="#DejaVuSans-30" x="63.623047"/>
       <use xlink:href="#DejaVuSans-30" x="127.246094"/>
      </g>
     </g>
    </g>
    <g id="xtick_7">
     <g id="line2d_13">
      <path d="M 537.483939 282.04 
L 537.483939 26.88 
" clip-path="url(#p294ceae7f0)" style="fill: none; stroke: #b0b0b0; stroke-width: 0.8; stroke-linecap: square"/>
     </g>
     <g id="line2d_14">
      <g>
       <use xlink:href="#m6bf7344ff8" x="537.483939" y="282.04" style="stroke: #000000; stroke-width: 0.8"/>
      </g>
     </g>
     <g id="text_7">
      <!-- 220 -->
      <g transform="translate(527.940189 296.638438) scale(0.1 -0.1)">
       <use xlink:href="#DejaVuSans-32"/>
       <use xlink:href="#DejaVuSans-32" x="63.623047"/>
       <use xlink:href="#DejaVuSans-30" x="127.246094"/>
      </g>
     </g>
    </g>
    <g id="xtick_8">
     <g id="line2d_15">
      <path d="M 613.024458 282.04 
L 613.024458 26.88 
" clip-path="url(#p294ceae7f0)" style="fill: none; stroke: #b0b0b0; stroke-width: 0.8; stroke-linecap: square"/>
     </g>
     <g id="line2d_16">
      <g>
       <use xlink:href="#m6bf7344ff8" x="613.024458" y="282.04" style="stroke: #000000; stroke-width: 0.8"/>
      </g>
     </g>
     <g id="text_8">
      <!-- 240 -->
      <g transform="translate(603.480708 296.638438) scale(0.1 -0.1)">
       <use xlink:href="#DejaVuSans-32"/>
       <use xlink:href="#DejaVuSans-34" x="63.623047"/>
       <use xlink:href="#DejaVuSans-30" x="127.246094"/>
      </g>
     </g>
    </g>
    <g id="text_9">
     <!-- Time (s) -->
     <g transform="translate(347.151094 310.316563) scale(0.1 -0.1)">
      <defs>
       <path id="DejaVuSans-54" d="M -19 4666 
L 3928 4666 
L 3928 4134 
L 2272 4134 
L 2272 0 
L 1638 0 
L 1638 4134 
L -19 4134 
L -19 4666 
z
" transform="scale(0.015625)"/>
       <path id="DejaVuSans-69" d="M 603 3500 
L 1178 3500 
L 1178 0 
L 603 0 
L 603 3500 
z
M 603 4863 
L 1178 4863 
L 1178 4134 
L 603 4134 
L 603 4863 
z
" transform="scale(0.015625)"/>
       <path id="DejaVuSans-6d" d="M 3328 2828 
Q 3544 3216 3844 3400 
Q 4144 3584 4550 3584 
Q 5097 3584 5394 3201 
Q 5691 2819 5691 2113 
L 5691 0 
L 5113 0 
L 5113 2094 
Q 5113 2597 4934 2840 
Q 4756 3084 4391 3084 
Q 3944 3084 3684 2787 
Q 3425 2491 3425 1978 
L 3425 0 
L 2847 0 
L 2847 2094 
Q 2847 2600 2669 2842 
Q 2491 3084 2119 3084 
Q 1678 3084 1418 2786 
Q 1159 2488 1159 1978 
L 1159 0 
L 581 0 
L 581 3500 
L 1159 3500 
L 1159 2956 
Q 1356 3278 1631 3431 
Q 1906 3584 2284 3584 
Q 2666 3584 2933 3390 
Q 3200 3197 3328 2828 
z
" transform="scale(0.015625)"/>
       <path id="DejaVuSans-65" d="M 3597 1894 
L 3597 1613 
L 953 1613 
Q 991 1019 1311 708 
Q 1631 397 2203 397 
Q 2534 397 2845 478 
Q 3156 559 3463 722 
L 3463 178 
Q 3153 47 2828 -22 
Q 2503 -91 2169 -91 
Q 1331 -91 842 396 
Q 353 884 353 1716 
Q 353 2575 817 3079 
Q 1281 3584 2069 3584 
Q 2775 3584 3186 3129 
Q 3597 2675 3597 1894 
z
M 3022 2063 
Q 3016 2534 2758 2815 
Q 2500 3097 2075 3097 
Q 1594 3097 1305 2825 
Q 1016 2553 972 2059 
L 3022 2063 
z
" transform="scale(0.015625)"/>
       <path id="DejaVuSans-20" transform="scale(0.015625)"/>
       <path id="DejaVuSans-28" d="M 1984 4856 
Q 1566 4138 1362 3434 
Q 1159 2731 1159 2009 
Q 1159 1288 1364 580 
Q 1569 -128 1984 -844 
L 1484 -844 
Q 1016 -109 783 600 
Q 550 1309 550 2009 
Q 550 2706 781 3412 
Q 1013 4119 1484 4856 
L 1984 4856 
z
" transform="scale(0.015625)"/>
       <path id="DejaVuSans-73" d="M 2834 3397 
L 2834 2853 
Q 2591 2978 2328 3040 
Q 2066 3103 1784 3103 
Q 1356 3103 1142 2972 
Q 928 2841 928 2578 
Q 928 2378 1081 2264 
Q 1234 2150 1697 2047 
L 1894 2003 
Q 2506 1872 2764 1633 
Q 3022 1394 3022 966 
Q 3022 478 2636 193 
Q 2250 -91 1575 -91 
Q 1294 -91 989 -36 
Q 684 19 347 128 
L 347 722 
Q 666 556 975 473 
Q 1284 391 1588 391 
Q 1994 391 2212 530 
Q 2431 669 2431 922 
Q 2431 1156 2273 1281 
Q 2116 1406 1581 1522 
L 1381 1569 
Q 847 1681 609 1914 
Q 372 2147 372 2553 
Q 372 3047 722 3315 
Q 1072 3584 1716 3584 
Q 2034 3584 2315 3537 
Q 2597 3491 2834 3397 
z
" transform="scale(0.015625)"/>
       <path id="DejaVuSans-29" d="M 513 4856 
L 1013 4856 
Q 1481 4119 1714 3412 
Q 1947 2706 1947 2009 
Q 1947 1309 1714 600 
Q 1481 -109 1013 -844 
L 513 -844 
Q 928 -128 1133 580 
Q 1338 1288 1338 2009 
Q 1338 2731 1133 3434 
Q 928 4138 513 4856 
z
" transform="scale(0.015625)"/>
      </defs>
      <use xlink:href="#DejaVuSans-54"/>
      <use xlink:href="#DejaVuSans-69" x="57.958984"/>
      <use xlink:href="#DejaVuSans-6d" x="85.742188"/>
      <use xlink:href="#DejaVuSans-65" x="183.154297"/>
      <use xlink:href="#DejaVuSans-20" x="244.677734"/>
      <use xlink:href="#DejaVuSans-28" x="276.464844"/>
      <use xlink:href="#DejaVuSans-73" x="315.478516"/>
      <use xlink:href="#DejaVuSans-29" x="367.578125"/>
     </g>
    </g>
   </g>
   <g id="matplotlib.axis_2">
    <g id="ytick_1">
     <g id="line2d_17">
      <path d="M 56 249.178485 
L 678.96 249.178485 
" clip-path="url(#p294ceae7f0)" style="fill: none; stroke: #b0b0b0; stroke-width: 0.8; stroke-linecap: square"/>
     </g>
     <g id="line2d_18">
      <defs>
       <path id="mb9b5db7d5f" d="M 0 0 
L -3.5 0 
" style="stroke: #000000; stroke-width: 0.8"/>
      </defs>
      <g>
       <use xlink:href="#mb9b5db7d5f" x="56" y="249.178485" style="stroke: #000000; stroke-width: 0.8"/>
      </g>
     </g>
     <g id="text_10">
      <!-- −0.4 -->
      <g transform="translate(24.717188 252.977704) scale(0.1 -0.1)">
       <defs>
        <path id="DejaVuSans-2212" d="M 678 2272 
L 4684 2272 
L 4684 1741 
L 678 1741 
L 678 2272 
z
" transform="scale(0.015625)"/>
        <path id="DejaVuSans-2e" d="M 684 794 
L 1344 794 
L 1344 0 
L 684 0 
L 684 794 
z
" transform="scale(0.015625)"/>
       </defs>
       <use xlink:href="#DejaVuSans-2212"/>
       <use xlink:href="#DejaVuSans-30" x="83.789062"/>
       <use xlink:href="#DejaVuSans-2e" x="147.412109"/>
       <use xlink:href="#DejaVuSans-34" x="179.199219"/>
      </g>
     </g>
    </g>
    <g id="ytick_2">
     <g id="line2d_19">
      <path d="M 56 210.517879 
L 678.96 210.517879 
" clip-path="url(#p294ceae7f0)" style="fill: none; stroke: #b0b0b0; stroke-width: 0.8; stroke-linecap: square"/>
     </g>
     <g id="line2d_20">
      <g>
       <use xlink:href="#mb9b5db7d5f" x="56" y="210.517879" style="stroke: #000000; stroke-width: 0.8"/>
      </g>
     </g>
     <g id="text_11">
      <!-- −0.2 -->
      <g transform="translate(24.717188 214.317098) scale(0.1 -0.1)">
       <use xlink:href="#DejaVuSans-2212"/>
       <use xlink:href="#DejaVuSans-30" x="83.789062"/>
       <use xlink:href="#DejaVuSans-2e" x="147.412109"/>
       <use xlink:href="#DejaVuSans-32" x="179.199219"/>
      </g>
     </g>
    </g>
    <g id="ytick_3">
     <g id="line2d_21">
      <path d="M 56 171.857273 
L 678.96 171.857273 
" clip-path="url(#p294ceae7f0)" style="fill: none; stroke: #b0b0b0; stroke-width: 0.8; stroke-linecap: square"/>
     </g>
     <g id="line2d_22">
      <g>
       <use xlink:href="#mb9b5db7d5f" x="56" y="171.857273" style="stroke: #000000; stroke-width: 0.8"/>
      </g>
     </g>
     <g id="text_12">
      <!-- 0.0 -->
      <g transform="translate(33.096875 175.656491) scale(0.1 -0.1)">
       <use xlink:href="#DejaVuSans-30"/>
       <use xlink:href="#DejaVuSans-2e" x="63.623047"/>
       <use xlink:href="#DejaVuSans-30" x="95.410156"/>
      </g>
     </g>
    </g>
    <g id="ytick_4">
     <g id="line2d_23">
      <path d="M 56 133.196667 
L 678.96 133.196667 
" clip-path="url(#p294ceae7f0)" style="fill: none; stroke: #b0b0b0; stroke-width: 0.8; stroke-linecap: square"/>
     </g>
     <g id="line2d_24">
      <g>
       <use xlink:href="#mb9b5db7d5f" x="56" y="133.196667" style="stroke: #000000; stroke-width: 0.8"/>
      </g>
     </g>
     <g id="text_13">
      <!-- 0.2 -->
      <g transform="translate(33.096875 136.995885) scale(0.1 -0.1)">
       <use xlink:href="#DejaVuSans-30"/>
       <use xlink:href="#DejaVuSans-2e" x="63.623047"/>
       <use xlink:href="#DejaVuSans-32" x="95.410156"/>
      </g>
     </g>
    </g>
    <g id="ytick_5">
     <g id="line2d_25">
      <path d="M 56 94.536061 
L 678.96 94.536061 
" clip-path="url(#p294ceae7f0)" style="fill: none; stroke: #b0b0b0; stroke-width: 0.8; stroke-linecap: square"/>
     </g>
     <g id="line2d_26">
      <g>
       <use xlink:href="#mb9b5db7d5f" x="56" y="94.536061" style="stroke: #000000; stroke-width: 0.8"/>
      </g>
     </g>
     <g id="text_14">
      <!-- 0.4 -->
      <g transform="translate(33.096875 98.335279) scale(0.1 -0.1)">
       <use xlink:href="#DejaVuSans-30"/>
       <use xlink:href="#DejaVuSans-2e" x="63.623047"/>
       <use xlink:href="#DejaVuSans-34" x="95.410156"/>
      </g>
     </g>
    </g>
    <g id="ytick_6">
     <g id="line2d_27">
      <path d="M 56 55.875455 
L 678.96 55.875455 
" clip-path="url(#p294ceae7f0)" style="fill: none; stroke: #b0b0b0; stroke-width: 0.8; stroke-linecap: square"/>
     </g>
     <g id="line2d_28">
      <g>
       <use xlink:href="#mb9b5db7d5f" x="56" y="55.875455" style="stroke: #000000; stroke-width: 0.8"/>
      </g>
     </g>
     <g id="text_15">
      <!-- 0.6 -->
      <g transform="translate(33.096875 59.674673) scale(0.1 -0.1)">
       <use xlink:href="#DejaVuSans-30"/>
       <use xlink:href="#DejaVuSans-2e" x="63.623047"/>
       <use xlink:href="#DejaVuSans-36" x="95.410156"/>
      </g>
     </g>
    </g>
    <g id="text_16">
     <!-- Acceleration (m/s^2) -->
     <g transform="translate(18.6375 207.551406) rotate(-90) scale(0.1 -0.1)">
      <defs>
       <path id="DejaVuSans-41" d="M 2188 4044 
L 1331 1722 
L 3047 1722 
L 2188 4044 
z
M 1831 4666 
L 2547 4666 
L 4325 0 
L 3669 0 
L 3244 1197 
L 1141 1197 
L 716 0 
L 50 0 
L 1831 4666 
z
" transform="scale(0.015625)"/>
       <path id="DejaVuSans-63" d="M 3122 3366 
L 3122 2828 
Q 2878 2963 2633 3030 
Q 2388 3097 2138 3097 
Q 1578 3097 1268 2742 
Q 959 2388 959 1747 
Q 959 1106 1268 751 
Q 1578 397 2138 397 
Q 2388 397 2633 464 
Q 2878 531 3122 666 
L 3122 134 
Q 2881 22 2623 -34 
Q 2366 -91 2075 -91 
Q 1284 -91 818 406 
Q 353 903 353 1747 
Q 353 2603 823 3093 
Q 1294 3584 2113 3584 
Q 2378 3584 2631 3529 
Q 2884 3475 3122 3366 
z
" transform="scale(0.015625)"/>
       <path id="DejaVuSans-6c" d="M 603 4863 
L 1178 4863 
L 1178 0 
L 603 0 
L 603 4863 
z
" transform="scale(0.015625)"/>
       <path id="DejaVuSans-72" d="M 2631 2963 
Q 2534 3019 2420 3045 
Q 2306 3072 2169 3072 
Q 1681 3072 1420 2755 
Q 1159 2438 1159 1844 
L 1159 0 
L 581 0 
L 581 3500 
L 1159 3500 
L 1159 2956 
Q 1341 3275 1631 3429 
Q 1922 3584 2338 3584 
Q 2397 3584 2469 3576 
Q 2541 3569 2628 3553 
L 2631 2963 
z
" transform="scale(0.015625)"/>
       <path id="DejaVuSans-61" d="M 2194 1759 
Q 1497 1759 1228 1600 
Q 959 1441 959 1056 
Q 959 750 1161 570 
Q 1363 391 1709 391 
Q 2188 391 2477 730 
Q 2766 1069 2766 1631 
L 2766 1759 
L 2194 1759 
z
M 3341 1997 
L 3341 0 
L 2766 0 
L 2766 531 
Q 2569 213 2275 61 
Q 1981 -91 1556 -91 
Q 1019 -91 701 211 
Q 384 513 384 1019 
Q 384 1609 779 1909 
Q 1175 2209 1959 2209 
L 2766 2209 
L 2766 2266 
Q 2766 2663 2505 2880 
Q 2244 3097 1772 3097 
Q 1472 3097 1187 3025 
Q 903 2953 641 2809 
L 641 3341 
Q 956 3463 1253 3523 
Q 1550 3584 1831 3584 
Q 2591 3584 2966 3190 
Q 3341 2797 3341 1997 
z
" transform="scale(0.015625)"/>
       <path id="DejaVuSans-74" d="M 1172 4494 
L 1172 3500 
L 2356 3500 
L 2356 3053 
L 1172 3053 
L 1172 1153 
Q 1172 725 1289 603 
Q 1406 481 1766 481 
L 2356 481 
L 2356 0 
L 1766 0 
Q 1100 0 847 248 
Q 594 497 594 1153 
L 594 3053 
L 172 3053 
L 172 3500 
L 594 3500 
L 594 4494 
L 1172 4494 
z
" transform="scale(0.015625)"/>
       <path id="DejaVuSans-6f" d="M 1959 3097 
Q 1497 3097 1228 2736 
Q 959 2375 959 1747 
Q 959 1119 1226 758 
Q 1494 397 1959 397 
Q 2419 397 2687 759 
Q 2956 1122 2956 1747 
Q 2956 2369 2687 2733 
Q 2419 3097 1959 3097 
z
M 1959 3584 
Q 2709 3584 3137 3096 
Q 3566 2609 3566 1747 
Q 3566 888 3137 398 
Q 2709 -91 1959 -91 
Q 1206 -91 779 398 
Q 353 888 353 1747 
Q 353 2609 779 3096 
Q 1206 3584 1959 3584 
z
" transform="scale(0.015625)"/>
       <path id="DejaVuSans-6e" d="M 3513 2113 
L 3513 0 
L 2938 0 
L 2938 2094 
Q 2938 2591 2744 2837 
Q 2550 3084 2163 3084 
Q 1697 3084 1428 2787 
Q 1159 2491 1159 1978 
L 1159 0 
L 581 0 
L 581 3500 
L 1159 3500 
L 1159 2956 
Q 1366 3272 1645 3428 
Q 1925 3584 2291 3584 
Q 2894 3584 3203 3211 
Q 3513 2838 3513 2113 
z
" transform="scale(0.015625)"/>
       <path id="DejaVuSans-2f" d="M 1625 4666 
L 2156 4666 
L 531 -594 
L 0 -594 
L 1625 4666 
z
" transform="scale(0.015625)"/>
       <path id="DejaVuSans-5e" d="M 2988 4666 
L 4684 2925 
L 4056 2925 
L 2681 4159 
L 1306 2925 
L 678 2925 
L 2375 4666 
L 2988 4666 
z
" transform="scale(0.015625)"/>
      </defs>
      <use xlink:href="#DejaVuSans-41"/>
      <use xlink:href="#DejaVuSans-63" x="66.658203"/>
      <use xlink:href="#DejaVuSans-63" x="121.638672"/>
      <use xlink:href="#DejaVuSans-65" x="176.619141"/>
      <use xlink:href="#DejaVuSans-6c" x="238.142578"/>
      <use xlink:href="#DejaVuSans-65" x="265.925781"/>
      <use xlink:href="#DejaVuSans-72" x="327.449219"/>
      <use xlink:href="#DejaVuSans-61" x="368.5625"/>
      <use xlink:href="#DejaVuSans-74" x="429.841797"/>
      <use xlink:href="#DejaVuSans-69" x="469.050781"/>
      <use xlink:href="#DejaVuSans-6f" x="496.833984"/>
      <use xlink:href="#DejaVuSans-6e" x="558.015625"/>
      <use xlink:href="#DejaVuSans-20" x="621.394531"/>
      <use xlink:href="#DejaVuSans-28" x="653.181641"/>
      <use xlink:href="#DejaVuSans-6d" x="692.195312"/>
      <use xlink:href="#DejaVuSans-2f" x="789.607422"/>
      <use xlink:href="#DejaVuSans-73" x="823.298828"/>
      <use xlink:href="#DejaVuSans-5e" x="875.398438"/>
      <use xlink:href="#DejaVuSans-32" x="959.1875"/>
      <use xlink:href="#DejaVuSans-29" x="1022.810547"/>
     </g>
    </g>
   </g>
   <g id="line2d_29">
    <path d="M 84.316364 171.857273 
L 95.874063 171.857273 
L 99.72663 173.790303 
L 103.579196 171.857273 
L 107.431763 171.857273 
L 111.284329 169.924242 
L 115.136895 169.924242 
L 118.989462 171.857273 
L 134.399728 171.857273 
L 138.252294 173.790303 
L 142.104861 169.924242 
L 145.957427 175.723333 
L 149.809994 173.790303 
L 153.66256 169.924242 
L 157.515127 169.924242 
L 161.367693 171.857273 
L 165.22026 185.388485 
L 169.072826 202.785758 
L 172.925393 218.25 
L 176.777959 225.982121 
L 180.630526 231.781212 
L 184.483092 239.513333 
L 188.335659 241.446364 
L 192.188225 241.446364 
L 196.040792 243.379394 
L 199.893358 239.513333 
L 203.745925 237.580303 
L 207.598491 233.714242 
L 215.303624 222.116061 
L 219.15619 212.450909 
L 226.861323 196.986667 
L 230.71389 187.321515 
L 234.566456 179.589394 
L 238.419023 167.991212 
L 242.271589 160.259091 
L 246.124156 148.660909 
L 257.681855 125.464545 
L 261.534422 119.665455 
L 265.386988 111.933333 
L 273.092121 104.201212 
L 276.944688 102.268182 
L 280.797254 102.268182 
L 284.649821 100.335152 
L 288.502387 106.134242 
L 292.354954 108.067273 
L 300.060087 123.531515 
L 303.912653 135.129697 
L 307.76522 148.660909 
L 311.617786 166.058182 
L 315.470353 166.058182 
L 319.322919 142.861818 
L 323.175485 127.397576 
L 327.028052 113.866364 
L 330.880618 104.201212 
L 334.733185 96.469091 
L 342.438318 84.870909 
L 350.143451 81.004848 
L 353.996017 81.004848 
L 357.848584 82.937879 
L 361.70115 82.937879 
L 365.553717 88.73697 
L 369.406283 92.60303 
L 377.111416 104.201212 
L 388.669116 127.397576 
L 392.521682 137.062727 
L 400.226815 152.52697 
L 404.079382 164.125152 
L 411.784515 183.455455 
L 415.637081 191.187576 
L 419.489647 202.785758 
L 423.342214 210.517879 
L 427.19478 220.18303 
L 431.047347 225.982121 
L 434.899913 235.647273 
L 442.605046 247.245455 
L 446.457613 251.111515 
L 450.310179 256.910606 
L 454.162746 260.776667 
L 458.015312 260.776667 
L 461.867879 262.709697 
L 465.720445 262.709697 
L 473.425578 258.843636 
L 477.278145 251.111515 
L 481.130711 245.312424 
L 484.983278 235.647273 
L 488.835844 224.049091 
L 496.540977 196.986667 
L 500.393544 177.656364 
L 504.24611 167.991212 
L 508.098677 167.991212 
L 511.951243 171.857273 
L 515.80381 171.857273 
L 519.656376 173.790303 
L 523.508942 171.857273 
L 527.361509 173.790303 
L 531.214075 171.857273 
L 535.066642 173.790303 
L 538.919208 169.924242 
L 542.771775 171.857273 
L 562.034607 171.857273 
L 565.887174 173.790303 
L 569.73974 171.857273 
L 577.444873 171.857273 
L 581.29744 169.924242 
L 585.150006 171.857273 
L 596.707706 171.857273 
L 600.560272 169.924242 
L 604.412839 173.790303 
L 608.265405 171.857273 
L 650.643636 171.857273 
L 650.643636 171.857273 
" clip-path="url(#p294ceae7f0)" style="fill: none; stroke: #0000ff; stroke-width: 2; stroke-linecap: square"/>
   </g>
   <g id="line2d_30">
    <path d="M 84.316364 171.857273 
L 161.367693 171.857273 
L 165.22026 173.790303 
L 169.072826 179.589394 
L 172.925393 202.785758 
L 180.630526 253.044545 
L 184.483092 268.508788 
L 188.335659 268.508788 
L 192.188225 262.709697 
L 196.040792 247.245455 
L 199.893358 235.647273 
L 203.745925 225.982121 
L 207.598491 220.18303 
L 219.15619 208.584848 
L 223.008757 200.852727 
L 226.861323 191.187576 
L 238.419023 156.39303 
L 242.271589 146.727879 
L 246.124156 140.928788 
L 249.976722 138.995758 
L 257.681855 138.995758 
L 261.534422 137.062727 
L 265.386988 133.196667 
L 269.239555 127.397576 
L 273.092121 119.665455 
L 276.944688 110.000303 
L 280.797254 102.268182 
L 284.649821 98.402121 
L 288.502387 98.402121 
L 292.354954 100.335152 
L 296.20752 106.134242 
L 300.060087 115.799394 
L 303.912653 131.263636 
L 307.76522 142.861818 
L 311.617786 162.192121 
L 315.470353 179.589394 
L 319.322919 187.321515 
L 323.175485 171.857273 
L 327.028052 131.263636 
L 330.880618 86.803939 
L 334.733185 52.009394 
L 338.585751 38.478182 
L 342.438318 42.344242 
L 346.290884 59.741515 
L 350.143451 81.004848 
L 353.996017 98.402121 
L 357.848584 106.134242 
L 361.70115 108.067273 
L 365.553717 104.201212 
L 373.25885 100.335152 
L 377.111416 100.335152 
L 380.963983 106.134242 
L 384.816549 113.866364 
L 388.669116 119.665455 
L 392.521682 131.263636 
L 396.374249 138.995758 
L 400.226815 148.660909 
L 404.079382 160.259091 
L 407.931948 169.924242 
L 415.637081 193.120606 
L 423.342214 212.450909 
L 427.19478 224.049091 
L 434.899913 243.379394 
L 442.605046 258.843636 
L 446.457613 262.709697 
L 450.310179 268.508788 
L 454.162746 270.441818 
L 458.015312 268.508788 
L 461.867879 264.642727 
L 469.573012 253.044545 
L 473.425578 245.312424 
L 477.278145 235.647273 
L 481.130711 229.848182 
L 488.835844 214.383939 
L 492.688411 208.584848 
L 500.393544 185.388485 
L 508.098677 154.46 
L 511.951243 154.46 
L 515.80381 162.192121 
L 519.656376 177.656364 
L 523.508942 189.254545 
L 527.361509 195.053636 
L 531.214075 195.053636 
L 542.771775 166.058182 
L 546.624341 160.259091 
L 550.476908 158.326061 
L 554.329474 160.259091 
L 558.182041 166.058182 
L 562.034607 173.790303 
L 565.887174 177.656364 
L 569.73974 179.589394 
L 581.29744 173.790303 
L 585.150006 169.924242 
L 589.002573 167.991212 
L 596.707706 167.991212 
L 600.560272 171.857273 
L 604.412839 171.857273 
L 608.265405 173.790303 
L 615.970538 173.790303 
L 619.823105 171.857273 
L 627.528237 171.857273 
L 631.380804 169.924242 
L 635.23337 171.857273 
L 650.643636 171.857273 
L 650.643636 171.857273 
" clip-path="url(#p294ceae7f0)" style="fill: none; stroke: #ff0000; stroke-width: 2; stroke-linecap: square"/>
   </g>
   <g id="patch_3">
    <path d="M 56 282.04 
L 56 26.88 
" style="fill: none; stroke: #000000; stroke-width: 0.8; stroke-linejoin: miter; stroke-linecap: square"/>
   </g>
   <g id="patch_4">
    <path d="M 678.96 282.04 
L 678.96 26.88 
" style="fill: none; stroke: #000000; stroke-width: 0.8; stroke-linejoin: miter; stroke-linecap: square"/>
   </g>
   <g id="patch_5">
    <path d="M 56 282.04 
L 678.96 282.04 
" style="fill: none; stroke: #000000; stroke-width: 0.8; stroke-linejoin: miter; stroke-linecap: square"/>
   </g>
   <g id="patch_6">
    <path d="M 56 26.88 
L 678.96 26.88 
" style="fill: none; stroke: #000000; stroke-width: 0.8; stroke-linejoin: miter; stroke-linecap: square"/>
   </g>
   <g id="text_17">
    <!-- Y acceleration -->
    <g transform="translate(324.946563 20.88) scale(0.12 -0.12)">
     <defs>
      <path id="DejaVuSans-59" d="M -13 4666 
L 666 4666 
L 1959 2747 
L 3244 4666 
L 3922 4666 
L 2272 2222 
L 2272 0 
L 1638 0 
L 1638 2222 
L -13 4666 
z
" transform="scale(0.015625)"/>
     </defs>
     <use xlink:href="#DejaVuSans-59"/>
     <use xlink:href="#DejaVuSans-20" x="61.083984"/>
     <use xlink:href="#DejaVuSans-61" x="92.871094"/>
     <use xlink:href="#DejaVuSans-63" x="154.150391"/>
     <use xlink:href="#DejaVuSans-63" x="209.130859"/>
     <use xlink:href="#DejaVuSans-65" x="264.111328"/>
     <use xlink:href="#DejaVuSans-6c" x="325.634766"/>
     <use xlink:href="#DejaVuSans-65" x="353.417969"/>
     <use xlink:href="#DejaVuSans-72" x="414.941406"/>
     <use xlink:href="#DejaVuSans-61" x="456.054688"/>
     <use xlink:href="#DejaVuSans-74" x="517.333984"/>
     <use xlink:href="#DejaVuSans-69" x="556.542969"/>
     <use xlink:href="#DejaVuSans-6f" x="584.326172"/>
     <use xlink:href="#DejaVuSans-6e" x="645.507812"/>
    </g>
   </g>
   <g id="legend_1">
    <g id="patch_7">
     <path d="M 608.475625 64.23625 
L 671.96 64.23625 
Q 673.96 64.23625 673.96 62.23625 
L 673.96 33.88 
Q 673.96 31.88 671.96 31.88 
L 608.475625 31.88 
Q 606.475625 31.88 606.475625 33.88 
L 606.475625 62.23625 
Q 606.475625 64.23625 608.475625 64.23625 
z
" style="fill: #ffffff; opacity: 0.8; stroke: #cccccc; stroke-linejoin: miter"/>
    </g>
    <g id="line2d_31">
     <path d="M 610.475625 39.978437 
L 620.475625 39.978437 
L 630.475625 39.978437 
" style="fill: none; stroke: #0000ff; stroke-width: 2; stroke-linecap: square"/>
    </g>
    <g id="text_18">
     <!-- IA -->
     <g transform="translate(638.475625 43.478437) scale(0.1 -0.1)">
      <defs>
       <path id="DejaVuSans-49" d="M 628 4666 
L 1259 4666 
L 1259 0 
L 628 0 
L 628 4666 
z
" transform="scale(0.015625)"/>
      </defs>
      <use xlink:href="#DejaVuSans-49"/>
      <use xlink:href="#DejaVuSans-41" x="29.492188"/>
     </g>
    </g>
    <g id="line2d_32">
     <path d="M 610.475625 54.656563 
L 620.475625 54.656563 
L 630.475625 54.656563 
" style="fill: none; stroke: #ff0000; stroke-width: 2; stroke-linecap: square"/>
    </g>
    <g id="text_19">
     <!-- Matrix -->
     <g transform="translate(638.475625 58.156563) scale(0.1 -0.1)">
      <defs>
       <path id="DejaVuSans-4d" d="M 628 4666 
L 1569 4666 
L 2759 1491 
L 3956 4666 
L 4897 4666 
L 4897 0 
L 4281 0 
L 4281 4097 
L 3078 897 
L 2444 897 
L 1241 4097 
L 1241 0 
L 628 0 
L 628 4666 
z
" transform="scale(0.015625)"/>
       <path id="DejaVuSans-78" d="M 3513 3500 
L 2247 1797 
L 3578 0 
L 2900 0 
L 1881 1375 
L 863 0 
L 184 0 
L 1544 1831 
L 300 3500 
L 978 3500 
L 1906 2253 
L 2834 3500 
L 3513 3500 
z
" transform="scale(0.015625)"/>
      </defs>
      <use xlink:href="#DejaVuSans-4d"/>
      <use xlink:href="#DejaVuSans-61" x="86.279297"/>
      <use xlink:href="#DejaVuSans-74" x="147.558594"/>
      <use xlink:href="#DejaVuSans-72" x="186.767578"/>
      <use xlink:href="#DejaVuSans-69" x="227.880859"/>
      <use xlink:href="#DejaVuSans-78" x="255.664062"/>
     </g>
    </g>
   </g>
  </g>
 </g>
 <defs>
  <clipPath id="p294ceae7f0">
   <rect x="56" y="26.88" width="622.96" height="255.16"/>
  </clipPath>
 </defs>
</svg>
